<?xml version="1.0" standalone="no"?><!DOCTYPE svg PUBLIC "-//W3C//DTD SVG 1.1//EN" "http://www.w3.org/Graphics/SVG/1.1/DTD/svg11.dtd"><svg t="1636446036548" class="icon" viewBox="0 0 1024 1024" version="1.1" xmlns="http://www.w3.org/2000/svg" p-id="3977" xmlns:xlink="http://www.w3.org/1999/xlink" width="200" height="200"><defs><style type="text/css"></style></defs><path d="M904 1024H120c-66.168 0-120-53.832-120-120V120C0 53.832 53.832 0 120 0h784c66.168 0 120 53.832 120 120v784c0 66.168-53.832 120-120 120zM120 4C56.038 4 4 56.038 4 120v784c0 63.962 52.038 116 116 116h784c63.962 0 116-52.038 116-116V120c0-63.962-52.038-116-116-116H120z" fill="#D8DDE3" p-id="3978"></path><path d="M299.998 732c-16.5 0-29.914-13.332-29.998-29.85l-1.184-236.814H192a30 30 0 0 1-21.212-51.214l213.334-213.336a30 30 0 0 1 42.424 0L639.88 414.124a30.004 30.004 0 0 1-21.212 51.214H542v5.446c0 16.568-13.432 30-30 30s-30-13.432-30-30v-35.446c0-16.568 13.432-30 30-30h34.242l-140.908-140.91-140.908 140.91h34.24c16.51 0 29.916 13.34 30 29.85L330 701.85c0.084 16.568-13.282 30.066-29.85 30.15h-0.152z" fill="#20263B" p-id="3979"></path><path d="M618.668 834c-7.958 0-15.588-3.16-21.212-8.788L384.122 611.876a30.002 30.002 0 0 1 21.212-51.214H482v-4c0-16.568 13.432-30 30-30s30 13.432 30 30v34c0 16.568-13.432 30-30 30h-34.24l140.908 140.91 140.906-140.91h-34.24c-16.51 0-29.918-13.34-30-29.85L694 324.15c-0.082-16.568 13.282-30.068 29.85-30.15h0.154c16.498 0 29.914 13.332 29.996 29.85l1.184 236.814H832a30 30 0 0 1 21.212 51.214L639.88 825.212A29.984 29.984 0 0 1 618.668 834z" fill="#FF4B07" p-id="3980"></path></svg>