<?xml version="1.0" encoding="UTF-8"?>
<!DOCTYPE svg PUBLIC "-//W3C//DTD SVG 1.1//EN" "http://www.w3.org/Graphics/SVG/1.1/DTD/svg11.dtd">
<svg xmlns="http://www.w3.org/2000/svg" version="1.1" width="556px" height="449px" style="shape-rendering:geometricPrecision; text-rendering:geometricPrecision; image-rendering:optimizeQuality; fill-rule:evenodd; clip-rule:evenodd" xmlns:xlink="http://www.w3.org/1999/xlink">
<g><path style="opacity:0.999" fill="#3f2f82" d="M 344.5,41.5 C 354.513,40.4456 362.68,43.779 369,51.5C 372.408,58.1282 374.741,65.1282 376,72.5C 383.789,104.879 385.456,137.545 381,170.5C 368.132,225.036 333.965,256.202 278.5,264C 255.989,265.487 233.655,264.154 211.5,260C 194.534,256.244 187.367,245.744 190,228.5C 193.882,216.185 198.549,204.185 204,192.5C 213.389,182.484 224.889,177.984 238.5,179C 223.614,177.151 209.948,172.151 197.5,164C 188.116,155.072 181.949,144.239 179,131.5C 174.301,112.777 172.301,93.777 173,74.5C 175.82,62.3499 183.487,56.0165 196,55.5C 211.593,57.8186 227.093,60.652 242.5,64C 247.913,65.613 252.08,68.7797 255,73.5C 256.095,80.848 257.428,88.1813 259,95.5C 267.393,106.055 277.559,108.221 289.5,102C 299.932,92.0866 300.099,81.9199 290,71.5C 288.78,64.7011 291.613,60.5344 298.5,59C 313.826,52.8404 329.16,47.0071 344.5,41.5 Z"/></g>
<g><path style="opacity:1" fill="#4d98d4" d="M 346.5,54.5 C 354.063,54.5627 358.897,58.2294 361,65.5C 368.608,95.0319 371.608,125.032 370,155.5C 367.068,179.01 358.402,200.01 344,218.5C 333.676,228.863 321.842,236.696 308.5,242C 324.596,228.994 334.43,212.161 338,191.5C 343.309,166.769 345.309,141.769 344,116.5C 341.774,97.6542 336.607,79.6542 328.5,62.5C 334.484,59.6237 340.484,56.957 346.5,54.5 Z"/></g>
<g><path style="opacity:1" fill="#d83446" d="M 311.5,67.5 C 313.467,67.2606 315.301,67.5939 317,68.5C 320.429,76.4526 323.262,84.6193 325.5,93C 319.089,113.402 306.756,129.069 288.5,140C 271.741,146.518 254.741,147.184 237.5,142C 227.444,137.264 220.944,129.431 218,118.5C 213.149,103.454 209.649,88.1206 207.5,72.5C 208.5,72.1667 209.5,71.8333 210.5,71.5C 221.424,73.065 232.091,75.565 242.5,79C 244.58,110.429 260.914,122.763 291.5,116C 306.576,108.014 312.743,95.5136 310,78.5C 308.259,75.6907 307.092,72.6907 306.5,69.5C 308.553,69.5979 310.22,68.9313 311.5,67.5 Z"/></g>
<g><path style="opacity:1" fill="#bed64b" d="M 328.5,116.5 C 332.728,147.635 329.561,178.301 319,208.5C 309.607,225.892 295.774,238.392 277.5,246C 272.898,247.867 268.232,249.534 263.5,251C 243.657,252.536 224.323,250.203 205.5,244C 202.682,240.662 201.849,236.829 203,232.5C 207.503,235.001 212.336,236.501 217.5,237C 240.64,239.033 262.64,235.033 283.5,225C 297.622,216.594 304.289,204.094 303.5,187.5C 303.336,174.842 299.669,163.342 292.5,153C 308.403,144.597 320.403,132.431 328.5,116.5 Z"/></g>
<g><path style="opacity:1" fill="#ebae41" d="M 190.5,69.5 C 191.833,69.5 193.167,69.5 194.5,69.5C 196.258,89.7889 200.758,109.456 208,128.5C 216.098,146.819 230.265,156.652 250.5,158C 260.192,158.491 269.859,158.491 279.5,158C 291.182,172.31 293.682,188.144 287,205.5C 279.474,213.464 270.307,218.631 259.5,221C 243.962,224.6 228.295,225.267 212.5,223C 210.919,222.293 209.419,221.46 208,220.5C 208.994,211.011 212.828,202.844 219.5,196C 220.833,195.333 222.167,194.667 223.5,194C 240.482,192.482 257.482,191.149 274.5,190C 278.903,188.052 282.07,184.886 284,180.5C 285.345,174.691 283.178,170.857 277.5,169C 259.889,169.299 242.556,167.299 225.5,163C 206.55,159.05 195.383,147.55 192,128.5C 187.614,110.414 185.948,92.0807 187,73.5C 188.376,72.2949 189.542,70.9616 190.5,69.5 Z"/></g>
<g><path style="opacity:0.989" fill="#493887" d="M 327.5,300.5 C 334.53,300.964 336.53,304.297 333.5,310.5C 326.037,312.872 323.204,310.206 325,302.5C 325.995,301.934 326.828,301.267 327.5,300.5 Z"/></g>
<g><path style="opacity:0.996" fill="#443385" d="M 224.5,314.5 C 226.722,314.178 228.556,314.845 230,316.5C 232.416,321.001 235.083,325.334 238,329.5C 240.388,324.557 242.888,319.724 245.5,315C 249.514,314.173 252.181,315.673 253.5,319.5C 248.828,332.512 243.328,345.178 237,357.5C 232.682,360.433 229.516,359.433 227.5,354.5C 229.263,350.379 230.93,346.212 232.5,342C 228.276,334.612 224.276,327.112 220.5,319.5C 221.127,317.213 222.46,315.546 224.5,314.5 Z"/></g>
<g><path style="opacity:0.995" fill="#463686" d="M 292.5,315.5 C 295.807,315.063 298.807,315.73 301.5,317.5C 307.072,314.509 312.239,315.176 317,319.5C 323.099,327.976 322.266,335.809 314.5,343C 310.387,345.997 306.22,346.164 302,343.5C 301.667,347.833 301.333,352.167 301,356.5C 297.23,360.69 293.897,360.356 291,355.5C 290.562,343.521 290.395,331.688 290.5,320C 291.267,318.53 291.933,317.03 292.5,315.5 Z M 304.5,325.5 C 308.017,325.351 310.017,327.018 310.5,330.5C 307.5,337.167 304.5,337.167 301.5,330.5C 302.092,328.577 303.092,326.911 304.5,325.5 Z"/></g>
<g><path style="opacity:0.997" fill="#423284" d="M 265.5,315.5 C 269.257,315.071 272.757,315.737 276,317.5C 279.101,315.28 282.435,314.947 286,316.5C 286.818,326.078 286.651,335.578 285.5,345C 282.022,346.86 278.855,346.36 276,343.5C 266.316,348.002 259.649,345.002 256,334.5C 254.578,325.783 257.745,319.45 265.5,315.5 Z M 269.5,325.5 C 274.534,325.89 276.367,328.556 275,333.5C 270.626,336.543 267.793,335.543 266.5,330.5C 266.323,328.032 267.323,326.365 269.5,325.5 Z"/></g>
<g><path style="opacity:0.991" fill="#403083" d="M 325.5,315.5 C 328.448,315.223 331.281,315.556 334,316.5C 334.667,325.833 334.667,335.167 334,344.5C 330.954,346.971 327.954,346.971 325,344.5C 324.194,334.756 324.361,325.089 325.5,315.5 Z"/></g>
<g><path style="opacity:0.981" fill="#443485" d="M 254.5,365.5 C 266.626,364.453 271.46,369.786 269,381.5C 266.795,384.04 264.295,386.207 261.5,388C 264.553,388.179 267.553,388.679 270.5,389.5C 271.833,391.167 271.833,392.833 270.5,394.5C 263.276,395.812 256.109,395.812 249,394.5C 248.333,392.5 248.333,390.5 249,388.5C 251.383,385.727 254.217,383.561 257.5,382C 259.557,380.281 261.224,378.281 262.5,376C 260.848,372.568 258.681,372.068 256,374.5C 255.792,379.001 253.625,380.668 249.5,379.5C 247.251,373.347 248.918,368.68 254.5,365.5 Z"/></g>
<g><path style="opacity:0.999" fill="#493888" d="M 276.5,366.5 C 282.329,366 284.663,368.666 283.5,374.5C 289.158,373.679 290.825,375.846 288.5,381C 286.866,381.494 285.199,381.66 283.5,381.5C 283.5,383.833 283.5,386.167 283.5,388.5C 288.068,388.083 289.568,390.083 288,394.5C 277.815,396.479 273.648,392.146 275.5,381.5C 274.5,381.5 273.5,381.5 272.5,381.5C 272.579,380.07 272.246,378.736 271.5,377.5C 272.077,375.45 273.41,374.45 275.5,374.5C 275.401,371.763 275.735,369.096 276.5,366.5 Z"/></g>
<g><path style="opacity:0.986" fill="#493887" d="M 296.5,373.5 C 300.215,373.196 303.715,373.863 307,375.5C 307.72,377.112 307.554,378.612 306.5,380C 296.748,379.348 296.414,380.348 305.5,383C 309.41,386.925 309.41,390.925 305.5,395C 300.419,397.023 295.585,396.523 291,393.5C 290.289,391.633 290.789,390.133 292.5,389C 295.187,388.463 297.687,388.963 300,390.5C 300.5,390 301,389.5 301.5,389C 293.849,388.694 290.682,384.861 292,377.5C 292.907,375.391 294.407,374.058 296.5,373.5 Z"/></g>
</svg>
